<svg version="1.1" xmlns="http://www.w3.org/2000/svg" xmlns:xlink="http://www.w3.org/1999/xlink" width="161.17039" height="183.66575" viewBox="0,0,161.17039,183.66575"><defs><radialGradient cx="244.66667" cy="181.69012" r="90.41041" gradientUnits="userSpaceOnUse" id="color-1"><stop offset="0" stop-color="#c30000" stop-opacity="0"/><stop offset="1" stop-color="#c30000"/></radialGradient><linearGradient x1="234.9581" y1="181.46835" x2="244.04191" y2="169.53167" gradientUnits="userSpaceOnUse" id="color-2"><stop offset="0" stop-color="#c30000"/><stop offset="1" stop-color="#c30000" stop-opacity="0"/></linearGradient></defs><g transform="translate(-161.33148,-86.50093)"><g data-paper-data="{&quot;isPaintingLayer&quot;:true}" fill-rule="nonzero" stroke-linecap="round" stroke-linejoin="miter" stroke-miterlimit="10" stroke-dasharray="" stroke-dashoffset="0" style="mix-blend-mode: normal"><path d="M221.69794,209.39665c0,0 -32.41403,-29.3019 -19.67419,-49.97408c14.2335,-23.09587 33.02356,-8.08338 39.89245,-1.38767c0.75144,0.73249 2.40747,0.51567 2.40747,0.51567c0,0 1.67737,0.25583 2.41056,-0.5874c4.60968,-5.30156 10.54018,-12.71769 26.90341,-9.73863c42.63893,18.77776 -6.00537,61.68839 -6.00537,61.68839c0,0 -18.77342,18.92859 -35.30097,28.40403c-0.17371,0.09958 -7.4412,5.62797 -12.05912,7.40695c-0.50152,0.1932 -4.84813,0.17229 -6.31507,0.18115c-1.98037,0.37146 -7.52826,-4.5567 -7.9868,-4.78509c-0.18699,-0.09313 -17.31321,-17.30858 -23.82692,-25.01179c-9.18027,-10.85671 -11.16353,-14.81346 -14.03549,-33.55761c-2.87196,-18.74415 0,-48.52945 0,-48.52945c0,0 35.27353,-9.69404 48.92594,-16.32021c12.0238,-5.83573 28.72495,-21.36756 28.72495,-21.36756c0,0 15.47306,16.13374 27.37271,21.99173c7.51794,3.70095 22.02634,8.17563 33.34593,11.39879c5.19617,1.47957 7.65357,-1.98967 10.52121,-1.23344c2.04755,0.53996 5.31735,10.19735 5.31735,10.19735c0,0 1.00042,25.93541 -1.64052,40.2489c-2.64094,14.31349 -7.89935,31.3907 -25.70134,51.11082c-14.67018,16.25085 -41.4309,30.84415 -50.39262,35.47584c-1.91316,0.98879 -31.45068,-18.78308 -31.45068,-18.78308" fill="url(#color-1)" stroke="none" stroke-width="0"/><path d="M218.99857,206.83335c0,0 -29.63773,-28.37842 -17.98908,-48.3991c13.01439,-22.36797 30.19505,-7.82862 36.47562,-1.34393c0.68707,0.70941 2.20127,0.49941 2.20127,0.49941c0,0 1.5337,0.24777 2.20409,-0.56889c4.21486,-5.13448 9.6374,-12.31688 24.59911,-9.43171c38.98686,18.18596 -5.49101,59.74422 -5.49101,59.74422c0,0 -17.16546,18.33204 -32.2774,27.50885c-0.15883,0.09645 -6.80386,5.45059 -11.02624,7.1735c-0.45856,0.18711 -4.43289,0.16686 -5.77418,0.17545c-1.81075,0.35976 -6.88345,-4.41309 -7.30272,-4.63428c-0.17097,-0.09019 -15.83032,-16.76308 -21.78612,-24.22352c-8.39397,-10.51455 -10.20736,-14.34659 -12.83333,-32.5c-2.62597,-18.15341 0,-47 0,-47c0,0 32.25231,-9.38852 44.73537,-15.80586c10.99394,-5.65181 26.26463,-20.69414 26.26463,-20.69414c0,0 14.14778,15.62527 25.02821,21.29864c12.28253,6.40447 44.97179,15.20136 44.97179,15.20136c0,0 0.91474,29.63762 -1.5,43.5c-2.41474,13.86238 -7.22277,30.40139 -23.5,49.5c-16.27723,19.09861 -48.83333,35.83334 -48.83333,35.83334" fill="none" stroke="#e60000" stroke-width="15"/><path d="M189.40223,142.80866c0,0 4.33853,-1.73679 7.04483,0.30372c11.14915,8.4063 85.62052,64.55657 85.62052,64.55657c0,0 -2.56053,3.04701 -3.30531,3.49994c-0.88689,0.53936 -2.41449,-0.47755 -2.41449,-0.47755" fill="none" stroke="url(#color-2)" stroke-width="15"/><path d="M170.94968,134.65097l115.91251,88.62526" fill="none" stroke="#e60000" stroke-width="15"/></g></g></svg>